# xmcd
#
# Track frame offsets:
# 150
# 22923
# 43814
# 67307
# 83419
# 104921
# 120302
# 136755
# 154701
# 173608
# 193034
# 215320
#
# Disc length: 3165 seconds
#
#
# Revision: 1
# Processed by: cddbd v1.5.1PL0 Copyright (c) Steve Scherf et al.
# Submitted via: FreeRIP 2.93 
#
DISCID=9c0c5b0c
DTITLE=Gaucha - 32º Califórnia da Canção Nativa de Uruguaiana RS - 32º Califórnia da Canção Nativa de Uruguaiana RS
DYEAR=1900
DGENRE=Gauchesca
TTITLE0=Fronteira
TTITLE1=Um Minuto de Silêncio
TTITLE2=O Muro
TTITLE3=Na Ronda do Tempo
TTITLE4=Laçador de Barro
TTITLE5=Milonga Bruxa
TTITLE6=Responso de Santantônio
TTITLE7=Licurgo
TTITLE8=Pistola Boca de Sino
TTITLE9=Cabanha Toro Passo
TTITLE10=Procedência
TTITLE11=Torres do Sul
EXTD=
EXTT0=
EXTT1=
EXTT2=
EXTT3=
EXTT4=
EXTT5=
EXTT6=
EXTT7=
EXTT8=
EXTT9=
EXTT10=
EXTT11=
PLAYORDER=
